<svg xmlns="http://www.w3.org/2000/svg" xmlns:xlink="http://www.w3.org/1999/xlink" width="500" zoomAndPan="magnify" viewBox="0 0 375 374.999991" height="500" preserveAspectRatio="xMidYMid meet" version="1.0"><defs><g/></defs><rect x="-37.5" width="450" fill="#ffffff" y="-37.499999" height="449.999989" fill-opacity="1"/><rect x="-37.5" width="450" fill="#ffffff" y="-37.499999" height="449.999989" fill-opacity="1"/><path fill="#004aad" d="M 225.195312 190.933594 C 227.714844 186.570312 226.21875 180.992188 221.859375 178.476562 C 217.496094 175.957031 211.917969 177.453125 209.398438 181.816406 C 208.898438 182.679688 208.558594 183.589844 208.367188 184.519531 L 196.421875 184.519531 C 196.023438 182.617188 195.023438 180.851562 193.5 179.523438 L 199.464844 169.191406 C 203.507812 170.574219 208.09375 168.957031 210.3125 165.117188 C 212.828125 160.753906 211.335938 155.175781 206.972656 152.660156 C 204.503906 151.234375 201.648438 151.09375 199.175781 152.03125 L 193.28125 141.820312 C 194.121094 141.136719 194.851562 140.292969 195.425781 139.300781 C 197.945312 134.941406 196.449219 129.363281 192.085938 126.84375 C 187.726562 124.324219 182.148438 125.820312 179.628906 130.179688 C 177.109375 134.542969 178.605469 140.121094 182.96875 142.640625 C 185.234375 143.949219 187.835938 144.175781 190.164062 143.472656 L 196.179688 153.894531 C 195.539062 154.496094 194.976562 155.199219 194.515625 155.996094 C 193.984375 156.917969 193.628906 157.890625 193.445312 158.878906 L 181.574219 158.878906 C 181.09375 156.363281 179.566406 154.058594 177.171875 152.675781 C 172.808594 150.15625 167.230469 151.652344 164.714844 156.015625 C 162.496094 159.855469 163.386719 164.636719 166.609375 167.441406 L 160.644531 177.777344 C 156.601562 176.390625 152.015625 178.007812 149.796875 181.847656 C 147.28125 186.210938 148.773438 191.789062 153.136719 194.304688 C 157.5 196.824219 163.078125 195.332031 165.597656 190.96875 C 167.8125 187.128906 166.921875 182.347656 163.699219 179.539062 L 169.664062 169.207031 C 171.628906 169.878906 173.726562 169.84375 175.613281 169.1875 L 181.550781 179.472656 C 180.789062 180.125 180.128906 180.914062 179.597656 181.832031 C 177.078125 186.191406 178.574219 191.769531 182.9375 194.289062 C 187.296875 196.808594 192.875 195.3125 195.394531 190.949219 C 195.929688 190.023438 196.285156 189.042969 196.46875 188.046875 L 208.332031 188.046875 C 208.804688 190.574219 210.335938 192.882812 212.738281 194.273438 C 217.097656 196.789062 222.675781 195.296875 225.195312 190.933594 Z M 193.480469 162.40625 C 193.878906 164.316406 194.882812 166.09375 196.410156 167.425781 L 190.445312 177.757812 C 188.523438 177.101562 186.476562 177.121094 184.621094 177.738281 L 178.65625 167.40625 C 179.375 166.769531 180.003906 166.011719 180.511719 165.132812 C 181.015625 164.261719 181.355469 163.339844 181.546875 162.40625 Z M 193.480469 162.40625 " fill-opacity="1" fill-rule="nonzero"/><path fill="#004aad" d="M 76.03125 34.761719 C 85.15625 25.640625 99.855469 25.640625 108.976562 34.761719 C 118.101562 43.886719 118.101562 58.585938 108.976562 67.710938 L 69.1875 107.5 C 60.0625 116.621094 45.363281 116.621094 36.242188 107.5 C 27.117188 98.375 27.117188 83.675781 36.242188 74.550781 Z M 298.96875 340.152344 C 289.84375 349.277344 275.144531 349.277344 266.023438 340.152344 C 256.898438 331.027344 256.898438 316.328125 266.023438 307.207031 L 305.8125 267.417969 C 314.9375 258.292969 329.636719 258.292969 338.757812 267.417969 C 347.882812 276.539062 347.882812 291.238281 338.757812 300.363281 Z M 261.207031 34.59375 C 270.332031 25.46875 285.03125 25.46875 294.152344 34.59375 C 303.277344 43.71875 303.277344 58.417969 294.152344 67.539062 L 257.238281 104.457031 C 248.113281 113.582031 233.414062 113.582031 224.289062 104.457031 C 215.167969 95.332031 215.167969 80.632812 224.289062 71.511719 Z M 212.378906 268.429688 C 221.503906 259.308594 236.203125 259.308594 245.324219 268.429688 C 254.449219 277.554688 254.449219 292.253906 245.324219 301.378906 L 180.867188 365.835938 C 171.746094 374.957031 157.046875 374.957031 147.921875 365.835938 C 138.796875 356.710938 138.796875 342.011719 147.921875 332.886719 Z M 332.929688 147.878906 C 342.054688 138.757812 356.753906 138.757812 365.875 147.878906 C 375 157.003906 375 171.703125 365.875 180.828125 L 301.417969 245.285156 C 292.296875 254.40625 277.597656 254.40625 268.472656 245.285156 C 259.347656 236.160156 259.347656 221.460938 268.472656 212.335938 Z M 73.664062 129.714844 C 82.789062 120.59375 97.488281 120.59375 106.613281 129.714844 C 115.734375 138.839844 115.734375 153.539062 106.613281 162.664062 L 42.070312 227.035156 C 32.945312 236.160156 18.246094 236.160156 9.125 227.035156 C 0 217.914062 0 203.214844 9.125 194.089844 Z M 194.214844 9.164062 L 129.757812 73.621094 C 120.636719 82.746094 120.636719 97.445312 129.757812 106.570312 C 138.882812 115.691406 153.582031 115.691406 162.707031 106.570312 L 227.078125 42.027344 C 236.203125 32.90625 236.203125 18.207031 227.078125 9.082031 C 218.039062 0.0429688 203.253906 0.0429688 194.214844 9.164062 Z M 71.554688 224.25 L 34.636719 261.164062 C 25.511719 270.289062 25.511719 284.988281 34.636719 294.113281 C 43.761719 303.234375 58.460938 303.234375 67.582031 294.113281 L 104.5 257.195312 C 113.625 248.070312 113.625 233.371094 104.5 224.25 C 95.375 215.207031 80.675781 215.207031 71.554688 224.25 Z M 307.417969 80.886719 L 270.5 117.804688 C 261.375 126.929688 261.375 141.628906 270.5 150.75 C 279.625 159.875 294.324219 159.875 303.445312 150.75 L 340.363281 113.835938 C 349.488281 104.710938 349.488281 90.011719 340.363281 80.886719 C 331.324219 71.765625 316.539062 71.765625 307.417969 80.886719 Z M 117.761719 270.542969 L 80.929688 307.460938 C 71.808594 316.582031 71.808594 331.28125 80.929688 340.40625 C 90.054688 349.53125 104.753906 349.53125 113.878906 340.40625 L 150.792969 303.488281 C 159.917969 294.367188 159.917969 279.664062 150.792969 270.542969 C 141.671875 261.417969 126.886719 261.417969 117.761719 270.542969 Z M 117.761719 270.542969 " fill-opacity="1" fill-rule="evenodd"/><g fill="#1c1d33" fill-opacity="1"><g transform="translate(140.347994, 230.116809)"><g><path d="M 5.765625 0 L 0.0625 0 L 7.90625 -22.9375 L 13.734375 -22.9375 L 21.578125 0 L 15.875 0 L 14.640625 -4.125 L 7 -4.125 Z M 10.828125 -16.953125 L 8.421875 -8.78125 L 13.234375 -8.78125 Z M 10.828125 -16.953125 "/></g></g></g><g fill="#1c1d33" fill-opacity="1"><g transform="translate(163.499537, 230.116809)"><g><path d="M 16.53125 0 L 1.796875 0 L 1.796875 -22.9375 L 7.1875 -22.9375 L 7.1875 -4.8125 L 16.53125 -4.8125 Z M 16.53125 0 "/></g></g></g><g fill="#1c1d33" fill-opacity="1"><g transform="translate(181.780275, 230.116809)"><g><path d="M 16.53125 0 L 1.796875 0 L 1.796875 -22.9375 L 7.1875 -22.9375 L 7.1875 -4.8125 L 16.53125 -4.8125 Z M 16.53125 0 "/></g></g></g><g fill="#1c1d33" fill-opacity="1"><g transform="translate(204.197876, 230.116809)"><g><path d="M 4.453125 0 L 2.375 0 L 2.375 -22.9375 L 4.453125 -22.9375 Z M 4.453125 0 "/></g></g></g><g fill="#1c1d33" fill-opacity="1"><g transform="translate(213.158023, 230.116809)"><g><path d="M 4.453125 0 L 2.375 0 L 2.375 -22.9375 L 5.5625 -22.9375 L 16.71875 -1.890625 L 16.71875 -22.9375 L 18.765625 -22.9375 L 18.765625 0 L 15.578125 0 L 4.453125 -20.953125 Z M 4.453125 0 "/></g></g></g><g fill="#004aad" fill-opacity="1"><g transform="translate(155.633955, 248.667749)"><g><path d="M 1.421875 -4.796875 L 1.421875 -2.90625 L 3.625 -2.90625 L 3.625 -2.3125 L 1.421875 -2.3125 L 1.421875 0 L 0.6875 0 L 0.6875 -5.390625 L 4 -5.390625 L 4 -4.796875 Z M 1.421875 -4.796875 "/></g></g></g><g fill="#004aad" fill-opacity="1"><g transform="translate(159.885249, 248.667749)"><g><path d="M 1.421875 0 L 0.6875 0 L 0.6875 -5.390625 L 1.421875 -5.390625 Z M 1.421875 0 "/></g></g></g><g fill="#004aad" fill-opacity="1"><g transform="translate(161.990228, 248.667749)"><g><path d="M 3.75 -0.609375 L 3.75 0 L 0.6875 0 L 0.6875 -5.390625 L 1.40625 -5.390625 L 1.40625 -0.609375 Z M 3.75 -0.609375 "/></g></g></g><g fill="#004aad" fill-opacity="1"><g transform="translate(165.850605, 248.667749)"><g><path d="M 1.421875 0 L 0.6875 0 L 0.6875 -5.390625 L 1.421875 -5.390625 Z M 1.421875 0 "/></g></g></g><g fill="#004aad" fill-opacity="1"><g transform="translate(167.955585, 248.667749)"><g><path d="M 2.28125 -2.59375 C 2.488281 -2.59375 2.671875 -2.617188 2.828125 -2.671875 C 2.984375 -2.734375 3.113281 -2.8125 3.21875 -2.90625 C 3.332031 -3.007812 3.414062 -3.128906 3.46875 -3.265625 C 3.53125 -3.398438 3.5625 -3.550781 3.5625 -3.71875 C 3.5625 -4.0625 3.453125 -4.328125 3.234375 -4.515625 C 3.023438 -4.710938 2.707031 -4.8125 2.28125 -4.8125 L 1.40625 -4.8125 L 1.40625 -2.59375 Z M 2.28125 -5.390625 C 2.613281 -5.390625 2.90625 -5.347656 3.15625 -5.265625 C 3.414062 -5.179688 3.628906 -5.066406 3.796875 -4.921875 C 3.960938 -4.785156 4.082031 -4.613281 4.15625 -4.40625 C 4.238281 -4.195312 4.28125 -3.96875 4.28125 -3.71875 C 4.28125 -3.46875 4.234375 -3.238281 4.140625 -3.03125 C 4.054688 -2.820312 3.929688 -2.640625 3.765625 -2.484375 C 3.597656 -2.335938 3.390625 -2.222656 3.140625 -2.140625 C 2.890625 -2.054688 2.601562 -2.015625 2.28125 -2.015625 L 1.40625 -2.015625 L 1.40625 0 L 0.6875 0 L 0.6875 -5.390625 Z M 2.28125 -5.390625 "/></g></g></g><g fill="#004aad" fill-opacity="1"><g transform="translate(172.470007, 248.667749)"><g><path d="M 4.015625 -0.59375 L 4 0 L 0.6875 0 L 0.6875 -5.390625 L 4 -5.390625 L 4 -4.796875 L 1.421875 -4.796875 L 1.421875 -3 L 3.515625 -3 L 3.515625 -2.4375 L 1.421875 -2.4375 L 1.421875 -0.59375 Z M 4.015625 -0.59375 "/></g></g></g><g fill="#004aad" fill-opacity="1"><g transform="translate(176.811521, 248.667749)"><g/></g></g><g fill="#004aad" fill-opacity="1"><g transform="translate(178.73607, 248.667749)"><g><path d="M 4.46875 -1.109375 C 4.507812 -1.109375 4.546875 -1.09375 4.578125 -1.0625 L 4.859375 -0.75 C 4.640625 -0.5 4.375 -0.300781 4.0625 -0.15625 C 3.75 -0.0078125 3.367188 0.0625 2.921875 0.0625 C 2.535156 0.0625 2.179688 -0.00390625 1.859375 -0.140625 C 1.546875 -0.273438 1.273438 -0.460938 1.046875 -0.703125 C 0.828125 -0.941406 0.65625 -1.226562 0.53125 -1.5625 C 0.414062 -1.90625 0.359375 -2.28125 0.359375 -2.6875 C 0.359375 -3.09375 0.421875 -3.460938 0.546875 -3.796875 C 0.671875 -4.140625 0.847656 -4.429688 1.078125 -4.671875 C 1.316406 -4.921875 1.597656 -5.109375 1.921875 -5.234375 C 2.242188 -5.367188 2.597656 -5.4375 2.984375 -5.4375 C 3.367188 -5.4375 3.707031 -5.375 4 -5.25 C 4.300781 -5.132812 4.5625 -4.972656 4.78125 -4.765625 L 4.546875 -4.421875 C 4.523438 -4.398438 4.503906 -4.378906 4.484375 -4.359375 C 4.460938 -4.347656 4.429688 -4.34375 4.390625 -4.34375 C 4.335938 -4.34375 4.28125 -4.363281 4.21875 -4.40625 C 4.15625 -4.457031 4.070312 -4.515625 3.96875 -4.578125 C 3.863281 -4.640625 3.726562 -4.691406 3.5625 -4.734375 C 3.40625 -4.785156 3.210938 -4.8125 2.984375 -4.8125 C 2.703125 -4.8125 2.445312 -4.765625 2.21875 -4.671875 C 1.988281 -4.578125 1.789062 -4.4375 1.625 -4.25 C 1.457031 -4.0625 1.328125 -3.835938 1.234375 -3.578125 C 1.140625 -3.316406 1.09375 -3.019531 1.09375 -2.6875 C 1.09375 -2.351562 1.140625 -2.050781 1.234375 -1.78125 C 1.335938 -1.519531 1.472656 -1.300781 1.640625 -1.125 C 1.804688 -0.945312 2 -0.804688 2.21875 -0.703125 C 2.445312 -0.609375 2.695312 -0.5625 2.96875 -0.5625 C 3.125 -0.5625 3.265625 -0.570312 3.390625 -0.59375 C 3.523438 -0.613281 3.644531 -0.644531 3.75 -0.6875 C 3.863281 -0.726562 3.96875 -0.773438 4.0625 -0.828125 C 4.15625 -0.890625 4.25 -0.96875 4.34375 -1.0625 C 4.382812 -1.09375 4.425781 -1.109375 4.46875 -1.109375 Z M 4.46875 -1.109375 "/></g></g></g><g fill="#004aad" fill-opacity="1"><g transform="translate(183.757936, 248.667749)"><g><path d="M 3.546875 -2 L 2.703125 -4.1875 C 2.679688 -4.25 2.65625 -4.320312 2.625 -4.40625 C 2.59375 -4.5 2.566406 -4.59375 2.546875 -4.6875 C 2.492188 -4.488281 2.4375 -4.320312 2.375 -4.1875 L 1.53125 -2 Z M 5.0625 0 L 4.5 0 C 4.4375 0 4.382812 -0.015625 4.34375 -0.046875 C 4.300781 -0.078125 4.269531 -0.117188 4.25 -0.171875 L 3.75 -1.46875 L 1.328125 -1.46875 L 0.828125 -0.171875 C 0.816406 -0.128906 0.789062 -0.0859375 0.75 -0.046875 C 0.707031 -0.015625 0.65625 0 0.59375 0 L 0.015625 0 L 2.171875 -5.390625 L 2.90625 -5.390625 Z M 5.0625 0 "/></g></g></g><g fill="#004aad" fill-opacity="1"><g transform="translate(188.847463, 248.667749)"><g><path d="M 2.171875 -2.78125 C 2.390625 -2.78125 2.578125 -2.804688 2.734375 -2.859375 C 2.898438 -2.910156 3.035156 -2.984375 3.140625 -3.078125 C 3.253906 -3.171875 3.335938 -3.28125 3.390625 -3.40625 C 3.441406 -3.539062 3.46875 -3.6875 3.46875 -3.84375 C 3.46875 -4.164062 3.363281 -4.40625 3.15625 -4.5625 C 2.945312 -4.726562 2.628906 -4.8125 2.203125 -4.8125 L 1.40625 -4.8125 L 1.40625 -2.78125 Z M 4.671875 0 L 4.015625 0 C 3.890625 0 3.796875 -0.0507812 3.734375 -0.15625 L 2.328125 -2.078125 C 2.285156 -2.140625 2.238281 -2.179688 2.1875 -2.203125 C 2.144531 -2.234375 2.070312 -2.25 1.96875 -2.25 L 1.40625 -2.25 L 1.40625 0 L 0.6875 0 L 0.6875 -5.390625 L 2.203125 -5.390625 C 2.546875 -5.390625 2.84375 -5.351562 3.09375 -5.28125 C 3.34375 -5.207031 3.546875 -5.101562 3.703125 -4.96875 C 3.867188 -4.84375 3.988281 -4.6875 4.0625 -4.5 C 4.144531 -4.320312 4.1875 -4.117188 4.1875 -3.890625 C 4.1875 -3.703125 4.15625 -3.523438 4.09375 -3.359375 C 4.03125 -3.191406 3.941406 -3.039062 3.828125 -2.90625 C 3.710938 -2.78125 3.570312 -2.671875 3.40625 -2.578125 C 3.25 -2.484375 3.066406 -2.414062 2.859375 -2.375 C 2.953125 -2.3125 3.03125 -2.234375 3.09375 -2.140625 Z M 4.671875 0 "/></g></g></g><g fill="#004aad" fill-opacity="1"><g transform="translate(193.557344, 248.667749)"><g><path d="M 5.0625 -5.390625 L 2.875 0 L 2.21875 0 L 0.015625 -5.390625 L 0.609375 -5.390625 C 0.671875 -5.390625 0.722656 -5.367188 0.765625 -5.328125 C 0.804688 -5.296875 0.835938 -5.257812 0.859375 -5.21875 L 2.375 -1.40625 C 2.40625 -1.320312 2.4375 -1.226562 2.46875 -1.125 C 2.5 -1.03125 2.523438 -0.925781 2.546875 -0.8125 C 2.578125 -0.925781 2.601562 -1.03125 2.625 -1.125 C 2.65625 -1.226562 2.6875 -1.320312 2.71875 -1.40625 L 4.234375 -5.21875 C 4.242188 -5.257812 4.269531 -5.296875 4.3125 -5.328125 C 4.363281 -5.367188 4.421875 -5.390625 4.484375 -5.390625 Z M 5.0625 -5.390625 "/></g></g></g><g fill="#004aad" fill-opacity="1"><g transform="translate(198.64687, 248.667749)"><g><path d="M 3.546875 -2 L 2.703125 -4.1875 C 2.679688 -4.25 2.65625 -4.320312 2.625 -4.40625 C 2.59375 -4.5 2.566406 -4.59375 2.546875 -4.6875 C 2.492188 -4.488281 2.4375 -4.320312 2.375 -4.1875 L 1.53125 -2 Z M 5.0625 0 L 4.5 0 C 4.4375 0 4.382812 -0.015625 4.34375 -0.046875 C 4.300781 -0.078125 4.269531 -0.117188 4.25 -0.171875 L 3.75 -1.46875 L 1.328125 -1.46875 L 0.828125 -0.171875 C 0.816406 -0.128906 0.789062 -0.0859375 0.75 -0.046875 C 0.707031 -0.015625 0.65625 0 0.59375 0 L 0.015625 0 L 2.171875 -5.390625 L 2.90625 -5.390625 Z M 5.0625 0 "/></g></g></g><g fill="#004aad" fill-opacity="1"><g transform="translate(203.736397, 248.667749)"><g><path d="M 3.75 -0.609375 L 3.75 0 L 0.6875 0 L 0.6875 -5.390625 L 1.40625 -5.390625 L 1.40625 -0.609375 Z M 3.75 -0.609375 "/></g></g></g><g fill="#004aad" fill-opacity="1"><g transform="translate(207.596774, 248.667749)"><g><path d="M 5.046875 -5.390625 L 5.046875 0 L 4.328125 0 L 4.328125 -2.453125 L 1.421875 -2.453125 L 1.421875 0 L 0.6875 0 L 0.6875 -5.390625 L 1.421875 -5.390625 L 1.421875 -2.984375 L 4.328125 -2.984375 L 4.328125 -5.390625 Z M 5.046875 -5.390625 "/></g></g></g><g fill="#004aad" fill-opacity="1"><g transform="translate(213.33659, 248.667749)"><g><path d="M 5.65625 -2.6875 C 5.65625 -2.28125 5.59375 -1.910156 5.46875 -1.578125 C 5.34375 -1.242188 5.160156 -0.953125 4.921875 -0.703125 C 4.691406 -0.460938 4.410156 -0.273438 4.078125 -0.140625 C 3.753906 -0.00390625 3.394531 0.0625 3 0.0625 C 2.601562 0.0625 2.242188 -0.00390625 1.921875 -0.140625 C 1.597656 -0.273438 1.316406 -0.460938 1.078125 -0.703125 C 0.847656 -0.953125 0.671875 -1.242188 0.546875 -1.578125 C 0.421875 -1.910156 0.359375 -2.28125 0.359375 -2.6875 C 0.359375 -3.09375 0.421875 -3.460938 0.546875 -3.796875 C 0.671875 -4.140625 0.847656 -4.429688 1.078125 -4.671875 C 1.316406 -4.921875 1.597656 -5.109375 1.921875 -5.234375 C 2.242188 -5.367188 2.601562 -5.4375 3 -5.4375 C 3.394531 -5.4375 3.753906 -5.367188 4.078125 -5.234375 C 4.410156 -5.109375 4.691406 -4.921875 4.921875 -4.671875 C 5.160156 -4.429688 5.34375 -4.140625 5.46875 -3.796875 C 5.59375 -3.460938 5.65625 -3.09375 5.65625 -2.6875 Z M 4.921875 -2.6875 C 4.921875 -3.019531 4.875 -3.316406 4.78125 -3.578125 C 4.6875 -3.835938 4.554688 -4.054688 4.390625 -4.234375 C 4.234375 -4.421875 4.035156 -4.5625 3.796875 -4.65625 C 3.554688 -4.757812 3.289062 -4.8125 3 -4.8125 C 2.71875 -4.8125 2.457031 -4.757812 2.21875 -4.65625 C 1.988281 -4.5625 1.789062 -4.421875 1.625 -4.234375 C 1.457031 -4.054688 1.328125 -3.835938 1.234375 -3.578125 C 1.140625 -3.316406 1.09375 -3.019531 1.09375 -2.6875 C 1.09375 -2.351562 1.140625 -2.054688 1.234375 -1.796875 C 1.328125 -1.535156 1.457031 -1.3125 1.625 -1.125 C 1.789062 -0.945312 1.988281 -0.8125 2.21875 -0.71875 C 2.457031 -0.625 2.71875 -0.578125 3 -0.578125 C 3.289062 -0.578125 3.554688 -0.625 3.796875 -0.71875 C 4.035156 -0.8125 4.234375 -0.945312 4.390625 -1.125 C 4.554688 -1.3125 4.6875 -1.535156 4.78125 -1.796875 C 4.875 -2.054688 4.921875 -2.351562 4.921875 -2.6875 Z M 4.921875 -2.6875 "/></g></g></g></svg>